<?xml version="1.0" standalone="no"?>
<!DOCTYPE svg PUBLIC "-//W3C//DTD SVG 20010904//EN"
 "http://www.w3.org/TR/2001/REC-SVG-20010904/DTD/svg10.dtd">
<svg version="1.0" xmlns="http://www.w3.org/2000/svg"
 width="300.000000pt" height="300.000000pt" viewBox="0 0 300.000000 300.000000"
 preserveAspectRatio="xMidYMid meet">
<metadata>
Created by potrace 1.10, written by Peter Selinger 2001-2011
</metadata>
<g transform="translate(0.000000,300.000000) scale(0.100000,-0.100000)"
fill="#000000" stroke="none">
<path d="M1345 2535 c-27 -8 -87 -33 -133 -55 -284 -141 -421 -487 -293 -739
l20 -38 -26 -24 c-37 -34 -53 -80 -53 -146 1 -109 50 -173 183 -239 40 -20 97
-55 127 -79 30 -23 69 -49 85 -58 87 -44 250 -60 350 -33 62 16 103 37 161 81
25 19 85 55 134 81 113 58 165 109 186 181 24 82 6 160 -49 211 -25 24 -25 24
-7 55 48 82 63 237 34 351 -67 260 -335 468 -599 465 -38 0 -92 -7 -120 -14z
m256 -31 c210 -62 382 -232 434 -430 29 -112 13 -272 -35 -336 -26 -35 -25
-37 10 -72 17 -16 34 -45 40 -65 32 -117 -20 -210 -162 -286 -29 -15 -71 -42
-93 -60 -59 -47 -171 -100 -240 -113 -134 -25 -285 15 -381 100 -22 19 -73 54
-114 78 -139 80 -185 156 -161 264 8 35 22 62 41 81 35 34 36 38 10 75 -42 59
-61 207 -39 312 63 304 413 533 690 452z"/>
<path d="M1790 2369 c0 -4 19 -26 41 -50 144 -152 190 -335 128 -507 -30 -86
-32 -103 -4 -44 83 175 42 386 -104 543 -33 35 -60 61 -61 58z"/>
<path d="M1704 1760 c-24 -9 -78 -70 -69 -78 3 -3 16 4 28 17 47 43 132 53
185 21 44 -27 37 -3 -8 28 -34 23 -95 29 -136 12z"/>
<path d="M1125 1711 c-24 -10 -63 -51 -48 -51 5 0 24 7 41 16 35 17 48 15 135
-24 54 -23 59 -24 75 -9 15 16 14 17 -11 17 -15 0 -51 14 -80 30 -55 31 -77
35 -112 21z"/>
<path d="M1951 1645 c19 -43 20 -53 9 -107 -6 -32 -27 -89 -46 -126 -23 -47
-27 -59 -12 -42 32 38 68 123 75 178 6 53 -9 113 -32 132 -10 9 -8 -2 6 -35z"/>
<path d="M1124 1615 c-45 -69 85 -157 141 -95 10 11 26 20 36 20 22 0 49 10
49 19 0 3 -14 6 -32 6 -21 0 -40 -9 -60 -29 -33 -32 -66 -30 -106 7 -28 26
-27 80 2 85 12 3 16 0 11 -8 -12 -20 5 -60 30 -70 27 -10 75 2 75 20 0 16 -81
70 -106 70 -14 0 -30 -10 -40 -25z"/>
<path d="M1779 1615 c-60 -43 -91 -57 -115 -52 -20 3 -22 2 -13 -9 6 -8 22
-14 35 -14 13 0 33 -9 44 -20 47 -47 150 -3 150 64 0 60 -43 73 -101 31z m85
-7 c15 -25 -8 -65 -49 -85 -33 -16 -39 -16 -63 -2 -15 8 -28 23 -30 33 -4 17
-2 17 22 1 22 -15 31 -16 56 -5 31 13 48 49 35 71 -5 7 -3 10 5 7 8 -2 18 -11
24 -20z"/>
<path d="M1572 1415 c30 -31 -99 -50 -138 -20 -22 17 -34 19 -34 5 0 -17 58
-40 101 -40 57 0 110 20 107 40 -2 8 -12 16 -23 18 -11 3 -17 1 -13 -3z"/>
</g>
</svg>
