<?xml version="1.0" standalone="no"?>
<!DOCTYPE svg PUBLIC "-//W3C//DTD SVG 20010904//EN"
 "http://www.w3.org/TR/2001/REC-SVG-20010904/DTD/svg10.dtd">
<svg version="1.0" xmlns="http://www.w3.org/2000/svg"
 width="300.000000pt" height="300.000000pt" viewBox="0 0 300.000000 300.000000"
 preserveAspectRatio="xMidYMid meet">
<metadata>
Created by potrace 1.10, written by Peter Selinger 2001-2011
</metadata>
<g transform="translate(0.000000,300.000000) scale(0.100000,-0.100000)"
fill="#000000" stroke="none">
<path d="M326 1519 c-14 -11 -26 -30 -26 -42 0 -27 55 -67 91 -67 36 0 61 -33
99 -130 42 -104 86 -156 143 -167 l42 -9 -40 -19 c-45 -21 -127 -31 -178 -21
-128 24 -213 181 -162 302 16 40 13 54 -14 54 -48 0 -107 -43 -115 -83 -2 -7
-8 -32 -15 -57 -18 -62 -10 -155 18 -213 86 -176 316 -254 541 -182 47 15 91
32 98 37 9 8 12 3 12 -18 0 -46 11 -73 31 -79 11 -4 23 -22 29 -44 13 -51 46
-91 74 -91 12 0 33 -11 46 -25 28 -30 70 -44 130 -44 25 -1 64 -1 87 -1 23 -1
53 6 65 14 13 8 41 19 64 25 51 14 73 37 85 91 14 62 -2 76 -49 45 -87 -56
-192 -57 -238 -2 -51 60 -18 158 76 226 31 23 54 29 116 35 117 9 160 49 130
121 -19 44 -80 76 -160 82 -43 4 -68 12 -84 27 -20 18 -36 21 -101 21 l-77 0
4 53 c5 62 -7 91 -48 115 -44 27 -87 22 -104 -10 -8 -16 -33 -46 -56 -68 -36
-35 -47 -40 -89 -40 -44 0 -54 5 -132 69 -136 112 -232 143 -293 95z m136 -16
c23 -9 77 -45 120 -80 43 -34 91 -69 107 -78 69 -35 137 -9 201 78 41 55 72
61 114 22 20 -18 26 -34 26 -65 0 -56 -14 -78 -63 -101 -60 -27 -196 -26 -256
1 -24 11 -83 58 -130 104 -99 96 -133 116 -193 115 l-43 -1 48 -8 c63 -11 87
-27 177 -120 93 -96 141 -122 238 -128 73 -5 83 -22 14 -22 -49 0 -92 -26 -92
-54 0 -28 -17 -36 -73 -35 -35 0 -38 2 -19 9 30 13 28 33 -9 69 -34 34 -75 41
-82 14 -3 -13 -8 -9 -20 17 -13 30 -13 36 -1 43 20 11 17 46 -6 85 -14 23 -26
32 -37 28 -22 -9 -42 11 -36 34 4 16 -3 23 -32 35 -20 9 -50 17 -66 18 l-30 2
22 18 c27 22 67 22 121 0z m-33 -57 c8 -9 12 -18 8 -22 -3 -3 -14 1 -23 11
-12 11 -28 16 -51 13 -32 -4 -40 1 -25 16 11 12 74 -1 91 -18z m-179 -61 c0
-18 -43 -65 -60 -65 -19 0 -10 15 20 32 17 9 30 24 30 33 0 8 2 15 5 15 3 0 5
-7 5 -15z m24 -20 c-18 -45 -18 -126 2 -173 36 -87 136 -152 235 -152 75 0
103 11 232 93 165 104 263 147 351 154 70 5 116 -5 116 -26 0 -5 -16 -12 -35
-15 -45 -9 -159 -68 -260 -137 -169 -113 -260 -144 -401 -137 -179 9 -299 118
-298 269 0 55 5 73 30 112 34 55 49 61 28 12z m252 -43 c5 -26 3 -32 -10 -32
-21 0 -51 62 -42 86 6 17 8 17 26 -2 11 -10 22 -34 26 -52z m-326 -47 c0 -33
-2 -35 -20 -25 -11 6 -19 14 -17 18 2 4 7 15 10 25 11 29 27 19 27 -18z m-10
-97 c0 -39 -22 -54 -34 -22 -8 22 -8 79 1 88 13 13 33 -27 33 -66z m1174 50
c43 -11 96 -57 96 -83 0 -48 -50 -75 -137 -75 -57 0 -85 -12 -139 -62 -133
-122 -99 -272 61 -270 29 0 69 7 91 16 l39 16 -24 -19 c-36 -28 -90 -41 -162
-40 -75 1 -111 12 -171 55 -64 45 -102 121 -102 205 0 92 34 146 124 201 117
70 207 86 324 56z m-743 -27 c37 -37 37 -51 0 -51 -32 0 -61 30 -61 62 0 27
28 22 61 -11z m194 -1 c-3 -5 -11 -10 -17 -10 -6 0 -20 -7 -30 -17 -19 -17
-35 -12 -23 7 8 12 42 28 63 29 7 1 10 -3 7 -9z m-509 -172 c148 -112 367
-100 558 31 l45 31 -26 -45 c-17 -32 -31 -45 -46 -45 -33 0 -85 -36 -89 -61
-4 -31 -61 -47 -84 -24 -9 8 -27 15 -40 15 -33 0 -94 -26 -94 -40 0 -7 -15
-10 -37 -8 -21 2 -36 6 -33 9 9 12 -32 48 -67 60 -28 9 -37 8 -52 -5 -17 -15
-20 -15 -43 3 -19 15 -24 27 -21 48 6 38 -43 95 -75 87 -27 -8 -43 34 -18 48
9 5 16 16 16 25 0 8 13 -9 28 -38 18 -34 46 -68 78 -91z m-59 20 c23 -22 32
-68 13 -68 -17 0 -60 51 -60 71 0 25 19 24 47 -3z m661 -19 c-14 -40 -5 -137
16 -177 27 -53 77 -102 130 -129 67 -34 171 -42 236 -18 25 9 51 17 58 19 7 1
18 8 24 14 15 15 48 16 48 2 0 -5 -8 -10 -18 -10 -19 0 -42 -18 -42 -34 0 -5
10 -1 23 10 22 19 22 19 4 -2 -9 -11 -24 -21 -32 -21 -11 0 -14 7 -10 21 5 17
3 16 -9 -4 -13 -22 -21 -25 -73 -25 -32 -1 -72 -7 -89 -15 -29 -12 -34 -11
-64 10 -17 12 -52 25 -77 28 -34 4 -48 11 -60 31 -9 14 -31 40 -50 56 -29 27
-34 38 -39 90 -7 91 -6 110 10 149 18 44 29 48 14 5z m-54 -53 c-3 -8 -12 -12
-19 -10 -15 6 -60 -15 -51 -23 3 -3 12 0 20 7 9 6 21 10 28 8 7 -3 -2 -12 -21
-22 -25 -13 -36 -15 -45 -6 -8 9 -4 18 19 36 34 27 78 33 69 10z m18 -63 c5
-17 4 -41 -1 -55 -9 -20 -10 -18 -10 19 -1 23 -5 45 -11 48 -5 3 -7 0 -4 -8 3
-8 1 -18 -5 -22 -7 -4 -11 3 -11 18 0 48 30 48 42 0z m-451 17 c29 -16 24 -40
-9 -40 -29 0 -72 24 -72 41 0 12 56 12 81 -1z m229 -20 c32 -20 -46 -54 -89
-39 -19 8 -21 12 -11 23 18 22 76 32 100 16z m294 -155 c9 -13 16 -30 16 -37
0 -7 -9 1 -19 18 -11 18 -25 34 -33 37 -9 4 -8 6 3 6 9 1 24 -10 33 -24z m131
-79 c38 -16 47 -36 16 -33 -11 0 -19 6 -18 12 1 5 -13 11 -31 13 -18 2 -30 8
-27 13 8 12 20 11 60 -5z m200 -16 c4 -6 -9 -10 -32 -10 -22 0 -44 -5 -51 -12
-9 -9 -12 -9 -12 0 0 24 82 43 95 22z"/>
<path d="M1168 1052 c-16 -9 -28 -20 -28 -25 0 -4 -4 -5 -10 -2 -6 4 -7 -1 -3
-11 5 -13 3 -16 -10 -11 -12 5 -17 1 -17 -12 0 -10 -7 -24 -15 -31 -8 -7 -15
-22 -15 -34 1 -16 5 -13 20 16 11 20 31 45 45 56 14 12 25 24 25 28 -1 3 11
15 27 25 35 24 18 25 -19 1z"/>
</g>
</svg>
