<?xml version="1.0" standalone="no"?>
<!DOCTYPE svg PUBLIC "-//W3C//DTD SVG 20010904//EN"
 "http://www.w3.org/TR/2001/REC-SVG-20010904/DTD/svg10.dtd">
<svg version="1.0" xmlns="http://www.w3.org/2000/svg"
 width="300.000000pt" height="300.000000pt" viewBox="0 0 300.000000 300.000000"
 preserveAspectRatio="xMidYMid meet">
<metadata>
Created by potrace 1.10, written by Peter Selinger 2001-2011
</metadata>
<g transform="translate(0.000000,300.000000) scale(0.100000,-0.100000)"
fill="#8464c7" stroke="none">
<path d="M1345 2535 c-27 -8 -87 -33 -133 -55 -284 -141 -421 -487 -293 -739
l20 -38 -26 -24 c-14 -13 -32 -38 -39 -56 -16 -37 -18 -130 -5 -166 8 -21 4
-30 -30 -63 -35 -34 -46 -39 -88 -39 -44 0 -54 5 -132 69 -97 80 -167 116
-225 116 -49 0 -94 -31 -94 -63 0 -27 55 -67 91 -67 36 0 61 -33 99 -130 42
-104 86 -156 143 -167 l42 -9 -40 -19 c-45 -21 -127 -31 -178 -21 -128 24
-213 181 -162 302 16 40 13 54 -14 54 -48 0 -107 -43 -115 -83 -2 -7 -8 -32
-15 -57 -18 -62 -10 -155 18 -213 86 -176 316 -254 541 -182 47 15 91 32 98
37 9 8 12 3 12 -18 0 -46 11 -73 31 -79 11 -4 23 -22 29 -44 13 -51 46 -91 74
-91 12 0 33 -11 46 -25 28 -30 70 -44 130 -44 25 -1 64 -1 87 -1 23 -1 53 6
65 14 13 8 41 19 64 25 51 14 73 37 85 91 14 62 -2 76 -49 45 -86 -55 -192
-57 -237 -4 -48 57 -27 139 53 209 49 44 55 46 155 55 50 5 75 13 96 31 28 23
29 23 46 4 18 -20 93 -40 154 -40 78 0 172 -96 179 -183 4 -46 1 -55 -23 -79
-15 -15 -43 -30 -62 -34 -48 -9 -133 11 -174 41 -44 33 -61 19 -50 -43 11 -54
34 -79 85 -93 23 -6 51 -17 64 -25 12 -8 42 -15 65 -15 161 1 181 5 221 50 11
12 29 21 42 21 27 0 74 56 74 88 0 19 6 28 45 60 9 8 15 29 15 54 0 31 3 38
13 30 6 -5 52 -22 100 -37 78 -25 99 -27 192 -23 91 4 112 8 169 37 158 78
237 233 195 381 -7 25 -13 50 -15 57 -6 33 -49 72 -86 78 -52 9 -62 -2 -43
-48 42 -102 -7 -229 -110 -285 -45 -25 -178 -23 -230 3 l-39 19 29 6 c73 15
111 58 155 172 36 94 62 128 99 128 36 0 91 40 91 67 0 12 -12 31 -26 42 -57
45 -159 16 -271 -77 -133 -111 -168 -117 -249 -40 -31 29 -31 30 -17 71 24 70
3 155 -50 205 -25 24 -25 24 -7 55 48 82 63 237 34 351 -67 260 -335 468 -599
465 -38 0 -92 -7 -120 -14z m256 -31 c210 -62 382 -232 434 -430 29 -112 13
-272 -35 -336 -26 -35 -25 -37 10 -72 51 -50 64 -140 31 -211 -24 -52 -69 -92
-161 -145 -76 -44 -127 -87 -116 -97 3 -3 12 0 20 7 13 10 26 6 75 -18 132
-66 175 -122 175 -232 0 -104 -49 -181 -145 -229 -82 -41 -177 -43 -256 -6
-29 13 -53 27 -53 30 0 3 12 -1 28 -9 76 -39 172 -27 217 26 56 66 15 186 -87
254 -37 25 -59 32 -123 37 -53 5 -86 13 -105 27 -35 25 -35 25 -69 0 -19 -15
-52 -23 -108 -29 -86 -9 -111 -21 -170 -83 -81 -84 -82 -192 -1 -234 40 -21
122 -21 174 0 l39 16 -24 -19 c-36 -28 -90 -41 -162 -40 -75 1 -111 12 -171
55 -98 69 -133 217 -76 315 28 47 66 78 157 123 42 22 56 25 67 15 8 -6 18 -9
22 -4 11 11 -58 66 -138 110 -126 69 -175 153 -151 259 8 35 22 62 41 81 35
34 36 38 10 75 -42 59 -61 207 -39 312 63 304 413 533 690 452z m-1139 -1001
c23 -9 77 -45 120 -80 93 -75 126 -93 170 -93 39 0 90 29 113 63 l15 24 43
-41 c23 -23 53 -49 67 -58 l25 -16 -45 -21 c-34 -16 -65 -21 -130 -21 -112 0
-151 19 -259 124 -99 96 -133 116 -193 115 l-43 -1 48 -8 c63 -11 87 -27 177
-120 93 -96 141 -122 238 -128 73 -5 83 -22 14 -22 -49 0 -92 -26 -92 -54 0
-28 -17 -36 -73 -35 -35 0 -38 2 -19 9 30 13 28 33 -9 69 -34 34 -75 41 -82
14 -3 -13 -8 -9 -20 17 -13 30 -13 36 -1 43 20 11 17 46 -6 85 -14 23 -26 32
-37 28 -22 -9 -42 11 -36 34 4 16 -3 23 -32 35 -20 9 -50 17 -66 18 l-30 2 22
18 c27 22 67 22 121 0z m2147 0 l22 -18 -30 -2 c-16 -1 -46 -9 -66 -18 -29
-12 -36 -19 -32 -35 6 -22 -9 -36 -35 -32 -11 2 -25 -10 -38 -30 -23 -38 -26
-74 -7 -85 12 -7 11 -14 -1 -43 -11 -26 -17 -30 -19 -17 -7 27 -46 20 -81 -14
-36 -35 -40 -53 -14 -68 14 -8 10 -10 -20 -11 -51 0 -68 9 -68 36 0 28 -43 54
-92 54 -70 0 -59 17 14 22 98 6 161 40 242 131 72 81 109 106 174 117 l47 8
-43 1 c-60 1 -94 -19 -192 -114 -47 -45 -101 -90 -120 -100 -51 -27 -196 -33
-255 -10 -58 21 -62 31 -26 50 17 8 46 31 65 51 l36 37 20 -25 c24 -31 78 -58
117 -58 34 0 75 24 156 92 107 88 199 119 246 81z m-2180 -57 c8 -9 12 -18 8
-22 -3 -3 -14 1 -23 11 -12 11 -28 16 -51 13 -32 -4 -40 1 -25 16 11 12 74 -1
91 -18z m2188 8 c2 -6 -10 -9 -30 -6 -22 2 -39 -2 -50 -12 -9 -9 -18 -12 -21
-7 -6 9 9 25 34 34 22 9 63 3 67 -9z m77 -87 c70 -103 53 -223 -45 -311 -73
-67 -117 -81 -249 -81 -143 1 -185 17 -374 142 -72 48 -151 94 -175 103 -24
10 -40 20 -35 22 5 3 26 15 47 27 l39 22 79 -35 c43 -18 126 -62 184 -97 181
-110 183 -111 244 -116 186 -17 325 149 266 317 -23 66 -21 66 19 7z m-2444
18 c0 -18 -43 -65 -60 -65 -19 0 -10 15 20 32 17 9 30 24 30 33 0 8 2 15 5 15
3 0 5 -7 5 -15z m24 -20 c-18 -45 -18 -126 2 -173 36 -87 136 -152 235 -152
75 0 104 11 228 90 115 73 182 109 261 140 48 19 53 19 83 4 62 -32 62 -34
-15 -74 -40 -20 -109 -61 -153 -90 -169 -114 -260 -145 -401 -138 -179 9 -299
118 -298 269 0 55 5 73 30 112 34 55 49 61 28 12z m2466 -13 c11 -4 9 2 -5 19
l-20 24 22 -19 c13 -10 20 -23 17 -27 -3 -5 0 -9 5 -9 6 0 11 -4 11 -10 0 -17
-20 -11 -45 15 -14 13 -25 32 -25 42 0 14 3 13 13 -6 6 -14 19 -27 27 -29z
m-2214 -30 c5 -26 3 -32 -10 -32 -21 0 -51 62 -42 86 6 17 8 17 26 -2 11 -10
22 -34 26 -52z m1944 28 c-6 -12 -14 -19 -17 -16 -3 3 0 14 8 23 13 16 12 17
-3 4 -10 -7 -18 -26 -18 -42 0 -16 -4 -29 -10 -29 -16 0 -11 33 11 69 14 23
24 30 31 23 7 -7 6 -17 -2 -32z m-2270 -75 c0 -33 -2 -35 -20 -25 -11 6 -19
14 -17 18 2 4 7 15 10 25 11 29 27 19 27 -18z m2578 4 c2 -13 8 -28 13 -33 11
-13 12 -77 0 -95 -5 -7 -14 -10 -20 -7 -15 10 -14 79 2 95 10 11 9 13 -5 8
-15 -5 -18 0 -18 29 0 41 23 43 28 3z m-2588 -101 c0 -39 -22 -54 -34 -22 -8
22 -8 79 1 88 13 13 33 -27 33 -66z m431 23 c37 -37 37 -51 0 -51 -32 0 -61
30 -61 62 0 27 28 22 61 -11z m1769 11 c0 -32 -29 -62 -61 -62 -37 0 -37 14 0
51 33 33 61 38 61 11z m-1575 -12 c-3 -5 -11 -10 -17 -10 -6 0 -20 -7 -30 -17
-19 -17 -35 -12 -23 7 8 12 42 28 63 29 7 1 10 -3 7 -9z m1384 -15 c21 -21 5
-31 -17 -12 -10 10 -24 17 -30 17 -6 0 -14 5 -18 11 -10 17 47 2 65 -16z
m-1893 -157 c148 -112 367 -100 558 31 l45 31 -26 -45 c-17 -32 -31 -45 -46
-45 -33 0 -85 -36 -89 -61 -4 -31 -61 -47 -84 -24 -9 8 -27 15 -40 15 -33 0
-94 -26 -94 -40 0 -7 -15 -10 -37 -8 -21 2 -36 6 -33 9 9 12 -32 48 -67 60
-28 9 -37 8 -52 -5 -17 -15 -20 -15 -43 3 -19 15 -24 27 -21 48 6 38 -43 95
-75 87 -27 -8 -43 34 -18 48 9 5 16 16 16 25 0 8 13 -9 28 -38 18 -34 46 -68
78 -91z m2461 105 c22 -17 7 -56 -18 -48 -30 10 -82 -50 -76 -88 3 -21 -2 -33
-21 -47 -21 -17 -26 -18 -39 -5 -8 8 -19 15 -24 15 -25 0 -79 -31 -94 -54 -12
-18 -26 -26 -46 -26 -16 0 -29 4 -29 10 0 15 -56 40 -89 40 -16 0 -37 -7 -45
-16 -22 -22 -86 -2 -86 27 0 22 -54 59 -87 59 -15 0 -29 13 -46 45 l-26 45 45
-31 c207 -142 453 -143 591 -2 23 24 48 60 55 79 7 20 14 29 16 22 3 -7 11
-18 19 -25z m-2520 -85 c23 -22 32 -68 13 -68 -17 0 -60 51 -60 71 0 25 19 24
47 -3z m2503 5 c-1 -19 -22 -53 -34 -53 -12 0 -6 24 12 44 l17 21 -23 -19
c-12 -11 -21 -28 -20 -39 2 -11 -3 -22 -9 -24 -20 -7 -15 32 8 61 23 30 49 34
49 9z m-1842 -24 c-14 -40 -5 -137 16 -177 27 -53 77 -102 130 -129 67 -34
171 -42 236 -18 25 9 51 17 58 19 7 1 18 8 24 14 15 15 48 16 48 2 0 -5 -8
-10 -18 -10 -19 0 -42 -18 -42 -34 0 -5 10 -1 23 10 22 19 22 19 4 -2 -9 -11
-24 -21 -32 -21 -11 0 -14 7 -10 21 5 17 3 16 -9 -4 -13 -22 -21 -25 -73 -25
-32 -1 -72 -7 -89 -15 -29 -12 -34 -11 -64 10 -17 12 -52 25 -77 28 -34 4 -48
11 -60 31 -9 14 -31 40 -50 56 -29 27 -34 38 -39 90 -7 91 -6 110 10 149 18
44 29 48 14 5z m1157 -28 c11 -35 13 -55 6 -74 -6 -14 -9 -44 -8 -67 1 -36 -3
-46 -34 -73 -20 -18 -43 -44 -52 -58 -12 -20 -26 -27 -60 -31 -25 -3 -60 -16
-77 -28 -32 -23 -33 -23 -79 -6 -51 18 -87 21 -95 7 -11 -16 -42 0 -54 27
l-11 27 6 -27 c3 -18 1 -28 -7 -28 -6 0 -9 4 -6 8 9 14 -24 52 -45 52 -10 0
-19 5 -19 10 0 14 33 13 48 -2 6 -6 17 -13 24 -14 7 -2 33 -10 58 -19 61 -23
169 -16 230 14 58 30 106 76 132 125 25 48 35 143 20 185 -6 18 -7 29 -2 26 4
-3 16 -27 25 -54z m-1211 -25 c-3 -8 -12 -12 -19 -10 -15 6 -60 -15 -51 -23 3
-3 12 0 20 7 9 6 21 10 28 8 7 -3 -2 -12 -21 -22 -25 -13 -36 -15 -45 -6 -8 9
-4 18 19 36 34 27 78 33 69 10z m1304 -6 c34 -21 40 -34 20 -46 -7 -4 -8 -3
-4 4 9 14 -39 46 -58 39 -8 -3 -17 1 -20 9 -8 20 23 18 62 -6z m-8 -25 c11
-14 10 -14 -11 -7 -23 9 -24 8 -20 -34 2 -30 -1 -44 -9 -44 -8 0 -11 12 -8 34
2 19 0 32 -4 30 -12 -8 -9 -59 4 -72 9 -9 8 -12 -5 -12 -25 0 -24 95 1 109 24
15 38 13 52 -4z m-1278 -32 c5 -17 4 -41 -1 -55 -9 -20 -10 -18 -10 19 -1 23
-5 45 -11 48 -5 3 -7 0 -4 -8 3 -8 1 -18 -5 -22 -7 -4 -11 3 -11 18 0 48 30
48 42 0z m-451 17 c29 -16 24 -40 -9 -40 -29 0 -72 24 -72 41 0 12 56 12 81
-1z m2189 0 c0 -12 -48 -32 -64 -27 -6 3 5 9 24 15 23 7 28 10 14 11 -12 1
-33 -8 -48 -20 -22 -17 -26 -18 -26 -4 0 8 10 20 23 25 30 12 77 12 77 0z
m-1960 -20 c32 -20 -46 -54 -89 -39 -19 8 -21 12 -11 23 18 22 76 32 100 16z
m1748 -15 c10 -9 11 -15 3 -19 -6 -4 -11 -3 -11 3 0 5 -17 8 -37 6 -35 -4 -36
-4 -8 4 l30 9 -32 1 c-20 1 -33 -4 -33 -11 0 -9 -3 -9 -12 0 -10 10 -10 15 2
23 18 12 80 2 98 -16z m-1454 -140 c9 -13 16 -30 16 -37 0 -7 -9 1 -19 18 -11
18 -25 34 -33 37 -9 4 -8 6 3 6 9 1 24 -10 33 -24z m1116 17 c0 -10 -31 -55
-44 -64 -32 -22 -35 8 -5 46 19 24 49 36 49 18z m-985 -96 c38 -16 47 -36 16
-33 -11 0 -19 6 -18 12 1 5 -13 11 -31 13 -18 2 -30 8 -27 13 8 12 20 11 60
-5z m860 4 c4 -6 -7 -10 -24 -10 -18 0 -40 -9 -51 -20 -16 -16 -20 -17 -20 -5
0 9 15 22 33 30 39 17 54 18 62 5z m-660 -20 c4 -6 -9 -10 -32 -10 -22 0 -44
-5 -51 -12 -9 -9 -12 -9 -12 0 0 24 82 43 95 22z m469 0 c36 -13 33 -25 -6
-27 -30 -1 -31 -1 -8 7 21 7 19 8 -18 9 -26 1 -41 5 -37 11 8 13 36 13 69 0z
m162 -15 c-27 -21 -53 -20 -36 0 7 8 22 15 34 15 21 -1 21 -1 2 -15z"/>
<path d="M1790 2369 c0 -4 19 -26 41 -50 144 -152 190 -335 128 -507 -30 -86
-32 -103 -4 -44 83 175 42 386 -104 543 -33 35 -60 61 -61 58z"/>
<path d="M1704 1760 c-24 -9 -78 -70 -69 -78 3 -3 16 4 28 17 47 43 132 53
185 21 44 -27 37 -3 -8 28 -34 23 -95 29 -136 12z"/>
<path d="M1125 1711 c-24 -10 -63 -51 -48 -51 5 0 24 7 41 16 35 17 48 15 135
-24 54 -23 59 -24 75 -9 15 16 14 17 -11 17 -15 0 -51 14 -80 30 -55 31 -77
35 -112 21z"/>
<path d="M1951 1645 c19 -43 20 -53 9 -107 -6 -33 -21 -78 -34 -102 -12 -23
-25 -51 -29 -62 -13 -36 23 16 50 73 41 89 40 198 -2 233 -10 9 -8 -2 6 -35z"/>
<path d="M1124 1615 c-45 -69 85 -157 141 -95 10 11 26 20 36 20 22 0 49 10
49 19 0 3 -14 6 -32 6 -21 0 -40 -9 -60 -29 -33 -32 -66 -30 -106 7 -28 26
-27 80 2 85 12 3 16 0 11 -8 -12 -20 5 -60 30 -70 27 -10 75 2 75 20 0 16 -81
70 -106 70 -14 0 -30 -10 -40 -25z"/>
<path d="M1779 1615 c-60 -43 -91 -57 -115 -52 -20 3 -22 2 -13 -9 6 -8 22
-14 35 -14 13 0 33 -9 44 -20 47 -47 150 -3 150 64 0 60 -43 73 -101 31z m85
-7 c15 -25 -8 -65 -49 -85 -33 -16 -39 -16 -63 -2 -15 8 -28 23 -30 33 -4 17
-2 17 22 1 22 -15 31 -16 56 -5 31 13 48 49 35 71 -5 7 -3 10 5 7 8 -2 18 -11
24 -20z"/>
<path d="M1572 1415 c30 -31 -99 -50 -138 -20 -22 17 -34 19 -34 5 0 -17 58
-40 101 -40 57 0 110 20 107 40 -2 8 -12 16 -23 18 -11 3 -17 1 -13 -3z"/>
<path d="M1200 1199 c0 -13 113 -65 160 -74 28 -5 23 -1 -22 18 -31 13 -73 34
-93 46 -41 24 -45 25 -45 10z"/>
<path d="M1907 1123 c27 -26 59 -61 72 -78 16 -22 19 -24 10 -6 -14 30 -86
109 -112 122 -10 6 4 -11 30 -38z"/>
<path d="M1168 1052 c-16 -9 -28 -20 -28 -25 0 -4 -4 -5 -10 -2 -6 4 -7 -1 -3
-11 5 -13 3 -16 -10 -11 -12 5 -17 1 -17 -12 0 -10 -7 -24 -15 -31 -8 -7 -15
-22 -15 -34 1 -16 5 -13 20 16 11 20 31 45 45 56 14 12 25 24 25 28 -1 3 11
15 27 25 35 24 18 25 -19 1z"/>
</g>
</svg>
