<?xml version="1.0" standalone="no"?>
<!DOCTYPE svg PUBLIC "-//W3C//DTD SVG 20010904//EN"
 "http://www.w3.org/TR/2001/REC-SVG-20010904/DTD/svg10.dtd">
<svg version="1.0" xmlns="http://www.w3.org/2000/svg"
 width="300.000000pt" height="300.000000pt" viewBox="0 0 300.000000 300.000000"
 preserveAspectRatio="xMidYMid meet">
<metadata>
Created by potrace 1.10, written by Peter Selinger 2001-2011
</metadata>
<g transform="translate(0.000000,300.000000) scale(0.100000,-0.100000)"
fill="#000000" stroke="none">
<path d="M2465 1516 c-28 -12 -78 -46 -112 -74 -111 -93 -146 -107 -201 -78
-31 17 -84 71 -101 104 -18 34 -71 30 -117 -10 -35 -31 -36 -33 -32 -92 l4
-61 -77 0 c-65 0 -81 -3 -101 -21 -16 -15 -41 -23 -84 -27 -118 -10 -194 -77
-163 -143 19 -38 55 -54 140 -61 55 -5 78 -12 109 -34 62 -45 93 -93 98 -152
4 -46 1 -55 -23 -79 -15 -15 -43 -30 -62 -34 -48 -9 -133 11 -174 41 -44 33
-61 19 -50 -43 11 -54 34 -79 85 -93 23 -6 51 -17 64 -25 12 -8 42 -15 65 -15
161 1 181 5 221 50 11 12 29 21 42 21 27 0 74 56 74 88 0 19 6 28 45 60 9 8
15 29 15 54 0 31 3 38 13 30 6 -5 52 -22 100 -37 78 -25 99 -27 192 -23 91 4
112 8 169 37 158 78 237 233 195 381 -7 25 -13 50 -15 57 -6 33 -49 72 -86 78
-52 9 -62 -2 -43 -48 42 -102 -7 -229 -110 -285 -45 -25 -178 -23 -230 3 l-39
19 29 6 c73 15 111 58 155 172 36 94 62 128 99 128 36 0 91 40 91 67 0 12 -12
31 -26 42 -36 28 -96 27 -159 -3z m144 -13 l22 -18 -30 -2 c-16 -1 -46 -9 -66
-18 -29 -12 -36 -19 -32 -35 6 -22 -9 -36 -35 -32 -11 2 -25 -10 -38 -30 -23
-38 -26 -74 -7 -85 12 -7 11 -14 -1 -43 -11 -26 -17 -30 -19 -17 -7 27 -46 20
-81 -14 -36 -35 -40 -53 -14 -68 14 -8 10 -10 -20 -11 -51 0 -68 9 -68 36 0
28 -43 54 -92 54 -70 0 -59 17 14 22 98 6 161 40 242 131 72 81 109 106 174
117 l47 8 -43 1 c-60 1 -94 -19 -192 -114 -109 -105 -133 -118 -243 -123 -98
-5 -165 13 -192 51 -24 35 -19 104 10 132 37 38 74 33 108 -15 59 -84 141
-119 203 -87 16 8 61 41 99 72 116 96 206 127 254 88z m8 -49 c2 -6 -10 -9
-30 -6 -22 2 -39 -2 -50 -12 -9 -9 -18 -12 -21 -7 -6 9 9 25 34 34 22 9 63 3
67 -9z m77 -87 c70 -103 53 -223 -45 -311 -73 -67 -117 -81 -249 -81 -143 1
-185 17 -369 138 -148 99 -173 112 -235 128 -25 6 -49 15 -51 20 -12 18 40 31
109 27 59 -4 88 -13 166 -50 52 -26 131 -69 175 -97 127 -80 155 -93 215 -98
185 -17 324 150 265 317 -23 66 -21 66 19 7z m46 -15 c11 -4 9 2 -5 19 l-20
24 22 -19 c13 -10 20 -23 17 -27 -3 -5 0 -9 5 -9 6 0 11 -4 11 -10 0 -17 -20
-11 -45 15 -14 13 -25 32 -25 42 0 14 3 13 13 -6 6 -14 19 -27 27 -29z m-270
-2 c-6 -12 -14 -19 -17 -16 -3 3 0 14 8 23 13 16 12 17 -3 4 -10 -7 -18 -26
-18 -42 0 -16 -4 -29 -10 -29 -16 0 -11 33 11 69 14 23 24 30 31 23 7 -7 6
-17 -2 -32z m308 -71 c2 -13 8 -28 13 -33 11 -13 12 -77 0 -95 -5 -7 -14 -10
-20 -7 -15 10 -14 79 2 95 10 11 9 13 -5 8 -15 -5 -18 0 -18 29 0 41 23 43 28
3z m-983 -51 c92 -30 184 -94 215 -148 19 -35 24 -59 24 -110 0 -104 -49 -181
-145 -229 -82 -41 -177 -43 -256 -6 -29 13 -53 27 -53 30 0 3 12 -1 28 -9 76
-39 172 -27 217 26 24 28 27 39 23 84 -5 64 -40 121 -100 164 -46 34 -54 36
-151 45 -50 5 -73 12 -87 28 -16 16 -17 23 -7 36 9 12 9 13 0 7 -24 -14 -13
20 15 46 62 57 170 72 277 36z m595 -16 c0 -32 -29 -62 -61 -62 -37 0 -37 14
0 51 33 33 61 38 61 11z m-191 -27 c21 -21 5 -31 -17 -12 -10 10 -24 17 -30
17 -6 0 -14 5 -18 11 -10 17 47 2 65 -16z m568 -52 c22 -17 7 -56 -18 -48 -30
10 -82 -50 -76 -88 3 -21 -2 -33 -21 -47 -21 -17 -26 -18 -39 -5 -8 8 -19 15
-24 15 -25 0 -79 -31 -94 -54 -12 -18 -26 -26 -46 -26 -16 0 -29 4 -29 10 0
15 -56 40 -89 40 -16 0 -37 -7 -45 -16 -22 -22 -86 -2 -86 27 0 22 -54 59 -87
59 -15 0 -29 13 -46 45 l-26 45 45 -31 c207 -142 453 -143 591 -2 23 24 48 60
55 79 7 20 14 29 16 22 3 -7 11 -18 19 -25z m-17 -80 c-1 -19 -22 -53 -34 -53
-12 0 -6 24 12 44 l17 21 -23 -19 c-12 -11 -21 -28 -20 -39 2 -11 -3 -22 -9
-24 -20 -7 -15 32 8 61 23 30 49 34 49 9z m-685 -52 c11 -35 13 -55 6 -74 -6
-14 -9 -44 -8 -67 1 -36 -3 -46 -34 -73 -20 -18 -43 -44 -52 -58 -12 -20 -26
-27 -60 -31 -25 -3 -60 -16 -77 -28 -32 -23 -33 -23 -79 -6 -51 18 -87 21 -95
7 -11 -16 -42 0 -54 27 l-11 27 6 -27 c3 -18 1 -28 -7 -28 -6 0 -9 4 -6 8 9
14 -24 52 -45 52 -10 0 -19 5 -19 10 0 14 33 13 48 -2 6 -6 17 -13 24 -14 7
-2 33 -10 58 -19 61 -23 169 -16 230 14 58 30 106 76 132 125 25 48 35 143 20
185 -6 18 -7 29 -2 26 4 -3 16 -27 25 -54z m93 -31 c34 -21 40 -34 20 -46 -7
-4 -8 -3 -4 4 9 14 -39 46 -58 39 -8 -3 -17 1 -20 9 -8 20 23 18 62 -6z m-8
-25 c11 -14 10 -14 -11 -7 -23 9 -24 8 -20 -34 2 -30 -1 -44 -9 -44 -8 0 -11
12 -8 34 2 19 0 32 -4 30 -12 -8 -9 -59 4 -72 9 -9 8 -12 -5 -12 -25 0 -24 95
1 109 24 15 38 13 52 -4z m460 -15 c0 -12 -48 -32 -64 -27 -6 3 5 9 24 15 23
7 28 10 14 11 -12 1 -33 -8 -48 -20 -22 -17 -26 -18 -26 -4 0 8 10 20 23 25
30 12 77 12 77 0z m-212 -35 c10 -9 11 -15 3 -19 -6 -4 -11 -3 -11 3 0 5 -17
8 -37 6 -35 -4 -36 -4 -8 4 l30 9 -32 1 c-20 1 -33 -4 -33 -11 0 -9 -3 -9 -12
0 -10 10 -10 15 2 23 18 12 80 2 98 -16z m-338 -123 c0 -10 -31 -55 -44 -64
-32 -22 -35 8 -5 46 19 24 49 36 49 18z m-125 -92 c4 -6 -7 -10 -24 -10 -18 0
-40 -9 -51 -20 -16 -16 -20 -17 -20 -5 0 9 15 22 33 30 39 17 54 18 62 5z
m-191 -20 c36 -13 33 -25 -6 -27 -30 -1 -31 -1 -8 7 21 7 19 8 -18 9 -26 1
-41 5 -37 11 8 13 36 13 69 0z m162 -15 c-27 -21 -53 -20 -36 0 7 8 22 15 34
15 21 -1 21 -1 2 -15z"/>
<path d="M1586 1190 c-51 -20 -80 -40 -59 -40 7 0 14 4 18 10 10 15 75 32 160
40 l80 7 -75 1 c-52 1 -90 -5 -124 -18z"/>
<path d="M1880 1157 c0 -4 17 -24 38 -45 20 -20 48 -50 60 -67 l23 -30 -17 33
c-19 32 -104 123 -104 109z"/>
</g>
</svg>
